<svg xmlns="http://www.w3.org/2000/svg" width="200" height="60" viewBox="0 0 200 60" version="1.1"><path d="M 18.706 14.627 C 17.450 15.884, 17.891 37.491, 19.200 38.800 C 20.902 40.502, 31.462 40.353, 32.911 38.607 C 33.677 37.685, 33.972 33.374, 33.784 25.857 L 33.500 14.500 26.456 14.210 C 22.582 14.051, 19.095 14.239, 18.706 14.627 M 20 16 C 20 16.550, 21.125 17, 22.500 17 C 23.875 17, 25 16.550, 25 16 C 25 15.450, 23.875 15, 22.500 15 C 21.125 15, 20 15.450, 20 16 M 27 16 C 27 16.550, 28.125 17, 29.500 17 C 30.875 17, 32 16.550, 32 16 C 32 15.450, 30.875 15, 29.500 15 C 28.125 15, 27 15.450, 27 16 M 20 26 L 20 34 26 34 L 32 34 32 26 L 32 18 26 18 L 20 18 20 26 M 118.476 19.203 C 117.528 21.672, 118.428 39.500, 119.500 39.500 C 120.050 39.500, 120.638 37.587, 120.807 35.250 C 121.053 31.861, 121.497 31, 123.001 31 C 126.901 31, 129.370 24.221, 126.750 20.705 C 125.004 18.361, 119.203 17.308, 118.476 19.203 M 130 29 C 130 35.667, 130.394 40, 131 40 C 131.550 40, 132 37.750, 132 35 L 132 30 135.500 30 L 139 30 139 35 C 139 37.750, 139.450 40, 140 40 C 140.606 40, 141 35.667, 141 29 C 141 22.333, 140.606 18, 140 18 C 139.450 18, 139 20.025, 139 22.500 C 139 26.976, 138.981 27, 135.500 27 C 132.019 27, 132 26.976, 132 22.500 C 132 20.025, 131.550 18, 131 18 C 130.394 18, 130 22.333, 130 29 M 146.405 20.105 C 143.506 23.308, 143.673 35.117, 146.659 38.103 C 149.293 40.738, 153.346 40.091, 155.133 36.751 C 157.010 33.245, 156.764 23.815, 154.715 20.687 C 152.573 17.419, 149.058 17.173, 146.405 20.105 M 160 28.917 C 160 41.564, 161.757 44.216, 162.208 32.250 L 162.500 24.500 165.538 31.929 C 170.002 42.846, 171 42.326, 171 29.083 C 171 22.361, 170.607 18, 170 18 C 169.417 18, 168.985 21.440, 168.965 26.250 L 168.930 34.500 165.589 26.541 C 163.752 22.164, 161.743 18.414, 161.124 18.208 C 160.337 17.946, 160 21.156, 160 28.917 M 175 29 L 175 40 179 40 C 181.200 40, 183 39.550, 183 39 C 183 38.450, 181.650 38, 180 38 C 177.175 38, 177 37.770, 177 34.066 C 177 30.608, 177.306 30.095, 179.531 29.816 C 180.923 29.642, 182.062 29.050, 182.062 28.500 C 182.062 27.950, 180.923 27.358, 179.531 27.184 C 177.376 26.914, 177 26.357, 177 23.434 C 177 20.285, 177.249 20, 180 20 C 181.650 20, 183 19.550, 183 19 C 183 18.450, 181.200 18, 179 18 L 175 18 175 29 M 121 24.500 C 121 29.391, 123.021 30.698, 124.965 27.066 C 126.371 24.438, 126.271 23.414, 124.429 21.571 C 121.861 19.004, 121 19.740, 121 24.500 M 148 21.501 C 144.891 25.246, 146.004 36.297, 149.630 37.688 C 152.215 38.680, 154 35.231, 154 29.243 C 154 21.187, 151.228 17.610, 148 21.501 M 20 37 C 20 37.550, 21.125 38, 22.500 38 C 23.875 38, 25 37.550, 25 37 C 25 36.450, 23.875 36, 22.500 36 C 21.125 36, 20 36.450, 20 37 M 28 37 C 28 37.550, 28.900 38, 30 38 C 31.100 38, 32 37.550, 32 37 C 32 36.450, 31.100 36, 30 36 C 28.900 36, 28 36.450, 28 37" stroke="none" fill="#fcd304" fill-rule="evenodd"/><path d="M 39.667 18.667 C 39.300 19.033, 39 23.758, 39 29.167 C 39 38.989, 39.003 39, 41.500 39 C 43.834 39, 44.008 38.652, 44.119 33.750 L 44.238 28.500 45.417 33.500 C 46.425 37.772, 46.975 38.545, 49.199 38.807 C 51.632 39.094, 51.899 38.703, 53.284 32.807 L 54.766 26.500 54.883 32.750 C 54.987 38.294, 55.226 39, 57 39 C 58.873 39, 59 38.333, 59 28.500 L 59 18 55.660 18 L 52.321 18 50.948 25.250 L 49.576 32.500 48.380 28 C 47.723 25.525, 46.910 22.262, 46.573 20.750 C 46.083 18.546, 45.403 18, 43.148 18 C 41.600 18, 40.033 18.300, 39.667 18.667 M 63 28.500 C 63 38.333, 63.127 39, 65 39 C 66.873 39, 67 38.333, 67 28.500 C 67 18.667, 66.873 18, 65 18 C 63.127 18, 63 18.667, 63 28.500 M 71 28.434 C 71 38.333, 71.126 39, 73 39 C 74.757 39, 75.011 38.303, 75.092 33.250 L 75.184 27.500 77.746 33.250 C 79.998 38.303, 80.654 39, 83.154 39 L 86 39 86 28.500 C 86 18.748, 85.861 18, 84.046 18 C 82.330 18, 82.055 18.820, 81.796 24.702 L 81.500 31.404 78.870 24.952 C 76.674 19.566, 75.807 18.448, 73.620 18.184 L 71 17.867 71 28.434 M 91.099 21.750 C 88.644 31.164, 87 37.839, 87 38.394 C 87 38.727, 88.094 39, 89.430 39 C 91.190 39, 91.949 38.379, 92.180 36.750 C 92.621 33.650, 97.362 33.536, 97.802 36.615 C 98.057 38.402, 98.988 38.822, 103.799 39.319 C 111.103 40.073, 114 38.439, 114 33.566 C 114 31.029, 113.246 29.544, 111 27.653 C 107.256 24.503, 106.913 21.510, 110.396 22.384 C 112.092 22.810, 112.978 22.501, 113.430 21.323 C 114.199 19.318, 112.434 18.036, 108.872 18.015 C 102.831 17.980, 101.782 25.116, 107.031 30.532 C 110.873 34.496, 110.215 36.792, 105.727 35.086 C 103.608 34.281, 103.069 34.403, 102.809 35.751 C 102.634 36.660, 101.439 33.038, 100.152 27.702 C 97.869 18.232, 97.745 18, 94.945 18 C 92.471 18, 91.943 18.516, 91.099 21.750 M 94 28 C 94 29.100, 94.450 30, 95 30 C 95.550 30, 96 29.100, 96 28 C 96 26.900, 95.550 26, 95 26 C 94.450 26, 94 26.900, 94 28 M 24.683 29.243 C 22.938 30.518, 22.945 30.640, 24.851 32.365 C 27.713 34.955, 31.500 34.178, 31.500 31 C 31.500 29.078, 30.922 28.432, 28.999 28.208 C 27.624 28.047, 25.681 28.513, 24.683 29.243" stroke="none" fill="#b4b4b4" fill-rule="evenodd"/></svg>